<svg width="65" height="40" fill="none" xmlns="http://www.w3.org/2000/svg"><path fill-rule="evenodd" clip-rule="evenodd" d="M23.786 38.92c-.196.1867-.4527.28-.77.28H12.46c-.3173 0-.5787-.0933-.784-.28-.2053-.1867-.308-.4573-.308-.812v-1.82c0-.28-.0233-.5273-.07-.742-.0467-.2147-.126-.5367-.238-.966L3.22 4.172c-.13067-.48533-.28933-.84-.476-1.064-.18667-.224-.45733-.40133-.812-.532L.7 2.184c-.242667-.112-.42-.266-.532-.462C.056 1.526 0 1.316 0 1.092 0 .756.112.49.336.294.56.098.896 0 1.344 0h16.212c.4667 0 .812.098 1.036.294.224.196.336.462.336.798 0 .504-.252.84-.756 1.008l-1.456.336c-.3733.112-.6067.34067-.7.686l-.0289.13453c-.0531.32565-.0061.73347.1409 1.22347l6.502 25.909 5.553-19.475-1.751-6.742c-.168-.59733-.322-.99867-.462-1.204s-.3407-.35467-.602-.448l-1.176-.42c-.28-.112-.4807-.24733-.602-.406-.1213-.15867-.182-.35-.182-.574 0-.354667.1167-.63.35-.826C23.9913.098 24.332 0 24.78 0h15.876c.4667 0 .812.098 1.036.294.224.196.336.471333.336.826 0 .24267-.07.45267-.21.63-.14.17733-.3593.322-.658.434l-1.232.336c-.3547.112-.5787.31267-.672.602l-.0266.10319c-.059.29313-.0221.73007.1106 1.31081l6.477 25.81L51.352 6.86c.2427-1.02667.1727-1.92267-.21-2.688-.3827-.76533-1.134-1.35333-2.254-1.764l-.616-.224c-.2613-.13067-.4527-.27533-.574-.434-.1213-.15867-.182-.36867-.182-.63 0-.336.1167-.606667.35-.812.2333-.205333.5833-.308 1.05-.308h8.904c.4667 0 .8167.102667 1.05.308.2333.205333.35.476.35.812 0 .26133-.07.47133-.21.63-.14.15867-.378.322-.714.49l-.672.308c-.8213.35467-1.5493.91-2.184 1.666-.6347.756-1.1013 1.75933-1.4 3.01l-6.216 26.908c-.1307.4853-.2193.8727-.266 1.162-.0467.2893-.07.6207-.07.994v1.82c0 .3547-.1027.6253-.308.812-.2053.1867-.4573.28-.756.28H35.728c-.3173 0-.574-.0933-.77-.28-.196-.1867-.294-.4573-.294-.812v-1.82c0-.2613-.0233-.4993-.07-.714l-.0226-.0991c-.0503-.2126-.1314-.5109-.2434-.8949l-4.822-18.57-5.09 18.122c-.0933.3173-.1727.644-.238.98-.0653.336-.098.728-.098 1.176v1.82c0 .3547-.098.6253-.294.812Zm37.24.112c-.9427.5787-2.0113.868-3.206.868-1.1573 0-2.2073-.2893-3.15-.868-.9427-.5787-1.6893-1.358-2.24-2.338-.5507-.98-.826-2.0393-.826-3.178 0-1.1573.2753-2.212.826-3.164s1.2973-1.7127 2.24-2.282c.9427-.5693 1.9927-.854 3.15-.854 1.1947 0 2.2633.2847 3.206.854.9427.5693 1.6893 1.33 2.24 2.282.5507.952.826 2.0067.826 3.164 0 1.1387-.2753 2.198-.826 3.178s-1.2973 1.7593-2.24 2.338Z" fill="#00001A"/></svg>